# xmcd
#
# Track frame offsets:
#	150
#	7163
#	29394
#	50665
#	67307
#	75423
#	92212
#	113785
#	131935
#	136422
#	158121
#	172904
#	191186
#	207252
#	225600
#	231574
#	249920
#	261329
#	266277
#
# Disc length: 3745 seconds
#
# Revision: 0
# Processed by: cddbd v1.5.1PL0 Copyright (c) Steve Scherf et al.
# Submitted via: audiograbber 1.83.01
#
DISCID=150e9f13
DTITLE=Big Tymers - HoodRich (Bootleg)
DYEAR=2002
DGENRE=Rap
TTITLE0=Slick Talkin (Intro)
TTITLE1=Oh Yeah!
TTITLE2=Still Fly
TTITLE3=Sunny Day
TTITLE4=The Preppy Pimp
TTITLE5=Hello
TTITLE6=Still Fly Remix
TTITLE7=I'm Comin'
TTITLE8=Greg Street Countdown
TTITLE9=Gimme Some
TTITLE10=Big
TTITLE11=Get High
TTITLE12=Pimpin
TTITLE13=Put That Shyt Up
TTITLE14=Greg Street Stuntin'
TTITLE15=Da Man
TTITLE16=Lil Mama
TTITLE17=Greg Street Radio
TTITLE18=My People
EXTD=
EXTT0=
EXTT1=
EXTT2=
EXTT3=
EXTT4=
EXTT5=
EXTT6=
EXTT7=
EXTT8=
EXTT9=
EXTT10=
EXTT11=
EXTT12=
EXTT13=
EXTT14=
EXTT15=
EXTT16=
EXTT17=
EXTT18=
PLAYORDER=
